<svg width="48" height="48" viewBox="0 0 48 48" fill="none" xmlns="http://www.w3.org/2000/svg">
<circle cx="24" cy="24" r="24" fill="white"/>
<path d="M12.7207 18.5V29H11.4492V18.5H12.7207ZM14.416 25.3838V25.2266C14.416 24.6934 14.4935 24.1989 14.6484 23.7432C14.8034 23.2829 15.0267 22.8841 15.3184 22.5469C15.61 22.2051 15.9632 21.9408 16.3779 21.7539C16.7926 21.5625 17.2575 21.4668 17.7725 21.4668C18.292 21.4668 18.7591 21.5625 19.1738 21.7539C19.5931 21.9408 19.9486 22.2051 20.2402 22.5469C20.5365 22.8841 20.762 23.2829 20.917 23.7432C21.0719 24.1989 21.1494 24.6934 21.1494 25.2266V25.3838C21.1494 25.917 21.0719 26.4115 20.917 26.8672C20.762 27.3229 20.5365 27.7217 20.2402 28.0635C19.9486 28.4007 19.5954 28.665 19.1807 28.8564C18.7705 29.0433 18.3057 29.1367 17.7861 29.1367C17.2666 29.1367 16.7995 29.0433 16.3848 28.8564C15.9701 28.665 15.6146 28.4007 15.3184 28.0635C15.0267 27.7217 14.8034 27.3229 14.6484 26.8672C14.4935 26.4115 14.416 25.917 14.416 25.3838ZM15.6807 25.2266V25.3838C15.6807 25.7529 15.724 26.1016 15.8105 26.4297C15.8971 26.7533 16.027 27.0404 16.2002 27.291C16.3779 27.5417 16.599 27.7399 16.8633 27.8857C17.1276 28.027 17.4352 28.0977 17.7861 28.0977C18.1325 28.0977 18.4355 28.027 18.6953 27.8857C18.9596 27.7399 19.1784 27.5417 19.3516 27.291C19.5247 27.0404 19.6546 26.7533 19.7412 26.4297C19.8324 26.1016 19.8779 25.7529 19.8779 25.3838V25.2266C19.8779 24.862 19.8324 24.5179 19.7412 24.1943C19.6546 23.8662 19.5225 23.5768 19.3447 23.3262C19.1715 23.071 18.9528 22.8704 18.6885 22.7246C18.4287 22.5788 18.1234 22.5059 17.7725 22.5059C17.4261 22.5059 17.1208 22.5788 16.8564 22.7246C16.5967 22.8704 16.3779 23.071 16.2002 23.3262C16.027 23.5768 15.8971 23.8662 15.8105 24.1943C15.724 24.5179 15.6807 24.862 15.6807 25.2266ZM27.5273 21.6035H28.6758V28.8428C28.6758 29.4945 28.5436 30.0505 28.2793 30.5107C28.015 30.971 27.6458 31.3197 27.1719 31.5566C26.7025 31.7982 26.1602 31.9189 25.5449 31.9189C25.2897 31.9189 24.9889 31.8779 24.6426 31.7959C24.3008 31.7184 23.9635 31.584 23.6309 31.3926C23.3027 31.2057 23.027 30.9528 22.8037 30.6338L23.4668 29.8818C23.7767 30.2555 24.1003 30.5153 24.4375 30.6611C24.7793 30.807 25.1165 30.8799 25.4492 30.8799C25.8503 30.8799 26.1966 30.8047 26.4883 30.6543C26.7799 30.5039 27.0055 30.2806 27.165 29.9844C27.3291 29.6927 27.4111 29.3327 27.4111 28.9043V23.2305L27.5273 21.6035ZM22.4346 25.3838V25.2402C22.4346 24.6751 22.5007 24.1624 22.6328 23.7021C22.7695 23.2373 22.9632 22.8385 23.2139 22.5059C23.4691 22.1732 23.7767 21.918 24.1367 21.7402C24.4967 21.5579 24.9023 21.4668 25.3535 21.4668C25.8184 21.4668 26.224 21.5488 26.5703 21.7129C26.9212 21.8724 27.2174 22.1071 27.459 22.417C27.7051 22.7223 27.8988 23.0915 28.04 23.5244C28.1813 23.9574 28.2793 24.4473 28.334 24.9941V25.623C28.2839 26.1654 28.1859 26.653 28.04 27.0859C27.8988 27.5189 27.7051 27.888 27.459 28.1934C27.2174 28.4987 26.9212 28.7334 26.5703 28.8975C26.2194 29.057 25.8092 29.1367 25.3398 29.1367C24.8978 29.1367 24.4967 29.0433 24.1367 28.8564C23.7812 28.6696 23.4759 28.4076 23.2207 28.0703C22.9655 27.7331 22.7695 27.3366 22.6328 26.8809C22.5007 26.4206 22.4346 25.9215 22.4346 25.3838ZM23.6992 25.2402V25.3838C23.6992 25.7529 23.7357 26.0993 23.8086 26.4229C23.8861 26.7464 24.0023 27.0312 24.1572 27.2773C24.3167 27.5234 24.5195 27.7171 24.7656 27.8584C25.0117 27.9951 25.3057 28.0635 25.6475 28.0635C26.0667 28.0635 26.4131 27.9746 26.6865 27.7969C26.96 27.6191 27.1764 27.3844 27.3359 27.0928C27.5 26.8011 27.6276 26.4844 27.7188 26.1426V24.4951C27.6686 24.2445 27.5911 24.0029 27.4863 23.7705C27.3861 23.5335 27.2539 23.3239 27.0898 23.1416C26.9303 22.9548 26.7321 22.8066 26.4951 22.6973C26.2581 22.5879 25.9801 22.5332 25.6611 22.5332C25.3148 22.5332 25.0163 22.6061 24.7656 22.752C24.5195 22.8932 24.3167 23.0892 24.1572 23.3398C24.0023 23.5859 23.8861 23.873 23.8086 24.2012C23.7357 24.5247 23.6992 24.8711 23.6992 25.2402ZM30.2617 25.3838V25.2266C30.2617 24.6934 30.3392 24.1989 30.4941 23.7432C30.6491 23.2829 30.8724 22.8841 31.1641 22.5469C31.4557 22.2051 31.8089 21.9408 32.2236 21.7539C32.6383 21.5625 33.1032 21.4668 33.6182 21.4668C34.1377 21.4668 34.6048 21.5625 35.0195 21.7539C35.4388 21.9408 35.7943 22.2051 36.0859 22.5469C36.3822 22.8841 36.6077 23.2829 36.7627 23.7432C36.9176 24.1989 36.9951 24.6934 36.9951 25.2266V25.3838C36.9951 25.917 36.9176 26.4115 36.7627 26.8672C36.6077 27.3229 36.3822 27.7217 36.0859 28.0635C35.7943 28.4007 35.4411 28.665 35.0264 28.8564C34.6162 29.0433 34.1514 29.1367 33.6318 29.1367C33.1123 29.1367 32.6452 29.0433 32.2305 28.8564C31.8158 28.665 31.4603 28.4007 31.1641 28.0635C30.8724 27.7217 30.6491 27.3229 30.4941 26.8672C30.3392 26.4115 30.2617 25.917 30.2617 25.3838ZM31.5264 25.2266V25.3838C31.5264 25.7529 31.5697 26.1016 31.6562 26.4297C31.7428 26.7533 31.8727 27.0404 32.0459 27.291C32.2236 27.5417 32.4447 27.7399 32.709 27.8857C32.9733 28.027 33.2809 28.0977 33.6318 28.0977C33.9782 28.0977 34.2812 28.027 34.541 27.8857C34.8053 27.7399 35.0241 27.5417 35.1973 27.291C35.3704 27.0404 35.5003 26.7533 35.5869 26.4297C35.6781 26.1016 35.7236 25.7529 35.7236 25.3838V25.2266C35.7236 24.862 35.6781 24.5179 35.5869 24.1943C35.5003 23.8662 35.3682 23.5768 35.1904 23.3262C35.0173 23.071 34.7985 22.8704 34.5342 22.7246C34.2744 22.5788 33.9691 22.5059 33.6182 22.5059C33.2718 22.5059 32.9665 22.5788 32.7021 22.7246C32.4424 22.8704 32.2236 23.071 32.0459 23.3262C31.8727 23.5768 31.7428 23.8662 31.6562 24.1943C31.5697 24.5179 31.5264 24.862 31.5264 25.2266Z" fill="black"/>
</svg>
