<svg width="7" height="10" viewBox="0 0 7 10" fill="none" xmlns="http://www.w3.org/2000/svg">
<path d="M3.02667 3.80667C3.08865 3.86915 3.16238 3.91875 3.24362 3.9526C3.32486 3.98644 3.412 4.00387 3.50001 4.00387C3.58801 4.00387 3.67515 3.98644 3.75639 3.9526C3.83763 3.91875 3.91136 3.86915 3.97334 3.80667L5.97334 1.80667C6.09888 1.68113 6.1694 1.51087 6.1694 1.33333C6.1694 1.1558 6.09888 0.985537 5.97334 0.860002C5.8478 0.734466 5.67754 0.66394 5.50001 0.66394C5.32247 0.66394 5.15221 0.734466 5.02667 0.860002L3.50001 2.39334L1.97334 0.860002C1.91118 0.797843 1.83739 0.748535 1.75617 0.714895C1.67496 0.681255 1.58791 0.66394 1.50001 0.66394C1.32247 0.66394 1.15221 0.734466 1.02667 0.860002C0.964514 0.922161 0.915207 0.995954 0.881567 1.07717C0.847926 1.15838 0.830612 1.24543 0.830612 1.33333C0.830612 1.51087 0.901138 1.68113 1.02667 1.80667L3.02667 3.80667ZM3.97334 6.86C3.91136 6.79752 3.83763 6.74792 3.75639 6.71407C3.67515 6.68023 3.58801 6.6628 3.50001 6.6628C3.412 6.6628 3.32486 6.68023 3.24362 6.71407C3.16238 6.74792 3.08865 6.79752 3.02667 6.86L1.02667 8.86C0.901138 8.98554 0.830612 9.1558 0.830612 9.33333C0.830612 9.51087 0.901138 9.68113 1.02667 9.80667C1.15221 9.9322 1.32247 10.0027 1.50001 10.0027C1.67754 10.0027 1.8478 9.9322 1.97334 9.80667L3.50001 8.27333L5.02667 9.80667C5.08865 9.86915 5.16238 9.91875 5.24362 9.9526C5.32486 9.98644 5.412 10.0039 5.50001 10.0039C5.58801 10.0039 5.67515 9.98644 5.75639 9.9526C5.83763 9.91875 5.91136 9.86915 5.97334 9.80667C6.03583 9.74469 6.08542 9.67096 6.11927 9.58972C6.15311 9.50848 6.17054 9.42134 6.17054 9.33333C6.17054 9.24533 6.15311 9.15819 6.11927 9.07695C6.08542 8.99571 6.03583 8.92198 5.97334 8.86L3.97334 6.86Z" fill="#1F2937"/>
</svg>
